<svg preserveAspectRatio="none" width="100%" height="100%" overflow="visible" style="display: block;" viewBox="0 0 20.113 24.9107" fill="none" xmlns="http://www.w3.org/2000/svg">
<path id="Vector" d="M15.4736 0C15.4736 0 15.4736 8.02546 15.4736 8.218C15.3466 8.10248 15.2832 8.05265 15.2265 7.99149C13.163 5.90754 10.6688 5.04677 7.77087 5.43411C4.66435 5.84184 2.35589 7.41839 1.02031 10.2748C-0.113451 12.669 -0.224427 15.1924 0.306175 17.7498C0.805032 20.1531 1.95919 22.185 4.08613 23.4965C7.03392 25.3086 10.1154 25.3086 13.2264 23.8997C14.0875 23.5102 14.8593 22.9481 15.494 22.2484L15.5779 22.2756V24.3142H20.113V0H15.4736ZM15.358 17.0091C14.9045 19.4826 12.9339 21.0864 10.3081 21.1362C7.26962 21.1951 5.10652 19.2992 4.7097 16.2253C4.55593 15.1554 4.61829 14.0655 4.89327 13.0201C5.57353 10.5149 7.53957 9.05384 10.1427 9.09914C11.2181 9.08192 12.2778 9.35756 13.2083 9.89648C14.7638 10.8501 15.435 12.2953 15.4758 14.0712C15.4758 14.3883 15.4758 14.7054 15.4758 15.0225H15.519C15.499 15.6863 15.4445 16.3487 15.3558 17.0068" fill="var(--fill-0, #151515)"/>
</svg>
