<svg preserveAspectRatio="none" width="100%" height="100%" overflow="visible" style="display: block;" viewBox="0 0 19.1965 19.6206" fill="none" xmlns="http://www.w3.org/2000/svg">
<path id="Vector" d="M13.7532 0.737646C11.3101 -0.183788 8.62532 -0.243728 6.14348 0.567759C4.93778 0.922031 3.8307 1.55096 2.9096 2.40508C1.98849 3.25919 1.27845 4.31517 0.835164 5.48994C-0.235279 8.13926 -0.278193 11.0922 0.714923 13.7714C1.41105 15.7353 2.64464 17.3209 4.51082 18.279C8.10938 20.1206 11.7669 20.0345 15.3383 18.2156C16.967 17.4179 18.2256 16.0243 18.8529 14.3241C18.9898 13.9589 19.0826 13.5786 19.1295 13.1915H14.6489C14.6489 13.1915 14.5468 13.3546 14.5105 13.418C14.2467 13.8483 13.9273 14.2421 13.5605 14.5891C12.4109 15.588 11.0163 15.8848 9.53104 15.8168C6.83042 15.6945 4.99597 13.9775 4.69439 11.3001C4.68902 11.239 4.68902 11.1776 4.69439 11.1166H19.1705C19.1746 11.0888 19.1746 11.0606 19.1705 11.0328C19.211 10.1104 19.2041 9.18648 19.1499 8.26476C18.9775 4.71526 17.0888 1.97895 13.7488 0.744442L13.7532 0.737646ZM4.74443 8.11527C4.74443 8.11527 4.74443 7.8593 4.74443 7.71433C4.89636 6.04264 5.73069 4.85117 7.29075 4.23505C8.05557 3.91579 8.87686 3.75328 9.70575 3.75717C10.5347 3.76107 11.3543 3.93127 12.1161 4.2577C13.6875 4.91912 14.438 6.17855 14.5559 7.85023C14.5559 7.94764 14.5559 8.10847 14.5559 8.10847L4.74443 8.11527Z" fill="var(--fill-0, #151515)"/>
</svg>
