<svg preserveAspectRatio="none" width="100%" height="100%" overflow="visible" style="display: block;" viewBox="0 0 20.1522 24.8987" fill="none" xmlns="http://www.w3.org/2000/svg">
<path id="Vector" d="M7.02271 6.39681C6.16448 6.88573 5.36817 7.47589 4.65088 8.15458V8.15458C4.65088 5.43639 4.65088 2.71819 4.65088 0C3.21326 0.0158561 0 0 0 0C0 0 0 16.3477 0 24.3482H4.51469V22.2529C4.91832 22.5927 5.26537 22.9325 5.66219 23.2111C7.31603 24.3671 9.29979 24.9575 11.3173 24.8941C14.5281 24.8261 17.1042 23.535 18.7005 20.69C20.4102 17.6546 20.544 14.4087 19.4465 11.1536C17.467 5.29821 10.9047 4.21999 7.01585 6.39681H7.02271ZM14.8661 18.2481C13.9749 20.0897 12.4692 21.0388 10.4307 21.1385C9.4002 21.2107 8.36831 21.0214 7.43082 20.588C5.56691 19.6978 4.57825 17.7317 4.57825 15.2853C4.57825 11.7335 6.39218 9.88741 8.21981 9.37549C10.1563 8.83411 12.009 9.00853 13.6099 10.3563C14.6166 11.2012 15.1471 12.3315 15.3807 13.6023C15.6732 15.1879 15.5849 16.7735 14.8661 18.2481" fill="var(--fill-0, #151515)"/>
</svg>
