<svg preserveAspectRatio="none" width="100%" height="100%" overflow="visible" style="display: block;" viewBox="0 0 16.9613 19.3448" fill="none" xmlns="http://www.w3.org/2000/svg">
<path id="Vector" d="M16.6129 4.94018C16.2433 3.25264 15.3794 1.87316 13.8216 1.0056C12.7508 0.438397 11.5675 0.11505 10.3568 0.0587687C8.48382 -0.079406 6.62675 -0.00691676 4.83767 0.636388C3.1801 1.23212 1.94662 2.28995 1.32078 3.9707C1.0637 4.66391 0.930807 5.39695 0.928394 6.13619H5.38174C5.38174 6.13619 5.39311 5.96631 5.40898 5.87117C5.47135 5.41173 5.66092 4.97879 5.95615 4.62104C6.25139 4.26328 6.6406 3.99492 7.08017 3.84612C7.91059 3.5455 8.80287 3.45597 9.67654 3.58562C10.3725 3.62698 11.0282 3.92577 11.5156 4.42373C12.3886 5.37963 12.2819 6.5575 12.2751 7.75577C12.1141 7.75577 10.7922 7.75577 10.6675 7.75577C9.35684 7.79654 9.16635 7.78976 7.92828 7.89169C6.39543 8.0208 4.87846 8.24505 3.44991 8.86344C1.15744 9.85784 -0.0398057 11.6383 0.00100982 13.994C0.0395578 16.2592 1.26852 18.0713 3.3093 18.8392C4.85802 19.4259 6.45663 19.4576 8.07111 19.1608C9.83752 18.8347 11.3227 18.0283 12.3431 16.5038C12.3567 16.4834 12.3885 16.4766 12.4656 16.4359V18.9275H16.9461C16.9461 18.9275 16.9802 11.3664 16.9461 7.64932C16.9322 6.74123 16.8236 5.83707 16.622 4.9515L16.6129 4.94018ZM12.3136 12.9815C12.2615 13.8355 11.7785 14.4946 11.1254 14.9975C9.62884 16.1527 7.93503 16.3883 6.17316 15.7948C4.41129 15.2014 4.13253 12.9181 5.58148 11.7175C6.19334 11.2411 6.91123 10.9194 7.67429 10.7798C8.20036 10.6665 8.7355 10.585 9.26156 10.5215C9.78763 10.4581 10.3159 10.4332 10.7082 10.4173C11.6833 10.3788 12.3274 10.4037 12.3274 10.4037C12.3274 10.4037 12.3499 12.2159 12.3046 12.9747" fill="var(--fill-0, #151515)"/>
</svg>
