<svg id="Header_Desktop_Logo_Big" data-name="Header/Desktop/Logo/Big" xmlns="http://www.w3.org/2000/svg" xmlns:xlink="http://www.w3.org/1999/xlink" width="360" height="198" viewBox="0 0 360 198">
  <defs>
    <clipPath id="clip-path">
      <path id="Clip_2" data-name="Clip 2" d="M0,0H360V198H0Z" fill="none"></path>
    </clipPath>
  </defs>
  <g id="Group_3" data-name="Group 3">
    <path id="Clip_2-2" data-name="Clip 2" d="M0,0H360V198H0Z" fill="none"></path>
    <g id="Group_3-2" data-name="Group 3" clip-path="url(#clip-path)">
      <path id="Fill_1" data-name="Fill 1" d="M0,198H360V0H0Z" fill="#e4002b"></path>
    </g>
  </g>
  <path id="Fill_4" data-name="Fill 4" d="M10.613,2.626H3.96v2.26H8.265V7.414H3.96v4.574H0V0H10.613V2.626" transform="translate(23.992 162.045)" fill="#fffffe"></path>
  <path id="Fill_5" data-name="Fill 5" d="M6.906,12.313a7.329,7.329,0,0,1-5.2-2.006A5.9,5.9,0,0,1,0,6.023a5.506,5.506,0,0,1,1.526-4.1A7.451,7.451,0,0,1,6.906,0,7.224,7.224,0,0,1,11.67,1.641a5.7,5.7,0,0,1,1.962,4.415,5.949,5.949,0,0,1-1.712,4.325A6.981,6.981,0,0,1,6.906,12.313ZM6.8,2.423A2.289,2.289,0,0,0,4.712,4.6,14.012,14.012,0,0,0,4.694,7.86,2.27,2.27,0,0,0,6.8,9.99,2.232,2.232,0,0,0,8.835,7.832,20.536,20.536,0,0,0,8.911,4.6,2.337,2.337,0,0,0,6.8,2.423Z" transform="translate(39.163 161.879)" fill="#fffffe"></path>
  <path id="Fill_6" data-name="Fill 6" d="M3.979,11.993h0L0,11.991V0H8.568a3.5,3.5,0,0,1,3.869,3.577A3.787,3.787,0,0,1,9.985,7.3l2.317,4.69-4.318,0L6.04,7.487H3.979v4.505Zm0-9.54V4.963H6.833a1.256,1.256,0,0,0,0-2.511Z" transform="translate(58.259 162.043)" fill="#fffffe"></path>
  <path id="Fill_7" data-name="Fill 7" d="M4.679,3.548c0,.3.409.5.706.536,1.1.167,1.147.135,2.554.35A4.743,4.743,0,0,1,11.914,7.11a3.254,3.254,0,0,1-.268,3.028c-1.18,1.857-3.786,2.109-4.858,2.158C5.231,12.371,1.557,12.171,0,9.68L1.915,8.215c.269.219.687.594.959.774a5.42,5.42,0,0,0,4.361.717,1.228,1.228,0,0,0,.657-.418.569.569,0,0,0-.353-.893,17.737,17.737,0,0,1-3.23-.765A5.047,5.047,0,0,1,.886,5.177,3.454,3.454,0,0,1,.942,2.13C1.674.727,3.783.217,4.679.086a8.336,8.336,0,0,1,6.9,2.044L9.609,3.624a5.116,5.116,0,0,0-4.45-.641c-.282.134-.48.265-.48.565" transform="translate(81.539 161.887)" fill="#fffffe"></path>
  <path id="Fill_8" data-name="Fill 8" d="M6.248,9.254c1.555,0,2.3-.582,2.3-1.589V0H11.63V8.149c0,2.59-1.405,4-5.431,4H5.427c-4.022,0-5.427-1.432-5.427-4V0H3.991V7.7c0,.926.687,1.557,2.257,1.557" transform="translate(98.877 162.043)" fill="#fffffe"></path>
  <path id="Fill_9" data-name="Fill 9" d="M12.824,8.086a5.368,5.368,0,0,1-3.888,3.96,10.952,10.952,0,0,1-2.524.272A6.378,6.378,0,0,1,0,6.01,6.219,6.219,0,0,1,6.382,0,9.994,9.994,0,0,1,8.936.314a4.756,4.756,0,0,1,3.669,3.738l-3.368.356A2.129,2.129,0,0,0,6.785,2.422C5.4,2.485,4.349,3.632,4.349,6.068v.285C4.349,8.806,5.4,9.894,6.742,10c1.54.095,2.508-.282,2.78-2.345l3.3.435" transform="translate(115.635 161.879)" fill="#fffffe"></path>
  <path id="Fill_10" data-name="Fill 10" d="M12.827,8.086a5.376,5.376,0,0,1-3.888,3.96,10.952,10.952,0,0,1-2.527.272A6.381,6.381,0,0,1,0,6.01,6.219,6.219,0,0,1,6.386,0,9.987,9.987,0,0,1,8.938.314,4.75,4.75,0,0,1,12.6,4.051l-3.371.356A2.125,2.125,0,0,0,6.784,2.422C5.4,2.485,4.352,3.632,4.352,6.068v.285C4.352,8.806,5.4,9.894,6.745,10c1.54.095,2.5-.282,2.775-2.345l3.306.435" transform="translate(133.274 161.879)" fill="#fffffe"></path>
  <path id="Fill_11" data-name="Fill 11" d="M11.119,11.988H0V0H10.625V2.626H3.975V4.885H8.265V7.41H3.975V9.487h7.144v2.5" transform="translate(151.11 162.046)" fill="#fffffe"></path>
  <path id="Fill_12" data-name="Fill 12" d="M4.678,3.548c0,.3.4.5.7.536,1.106.167,1.148.135,2.557.35A4.747,4.747,0,0,1,11.913,7.11a3.273,3.273,0,0,1-.268,3.028c-1.184,1.857-3.787,2.109-4.862,2.158C5.231,12.371,1.553,12.171,0,9.68L1.915,8.215c.272.219.687.594.955.774a5.424,5.424,0,0,0,4.361.717A1.256,1.256,0,0,0,7.9,9.288a.573.573,0,0,0-.36-.893,17.815,17.815,0,0,1-3.23-.765A5.058,5.058,0,0,1,.883,5.177,3.484,3.484,0,0,1,.941,2.13C1.677.727,3.779.217,4.678.086A8.34,8.34,0,0,1,11.584,2.13L9.612,3.624a5.131,5.131,0,0,0-4.456-.641c-.281.134-.477.265-.477.565" transform="translate(166.684 161.887)" fill="#fffffe"></path>
  <path id="Fill_13" data-name="Fill 13" d="M4.679,3.548c0,.3.4.5.7.536,1.106.167,1.154.135,2.554.35A4.747,4.747,0,0,1,11.914,7.11a3.261,3.261,0,0,1-.268,3.028c-1.183,1.857-3.786,2.109-4.861,2.158C5.231,12.371,1.55,12.171,0,9.68L1.913,8.215c.268.219.69.594.958.774a5.423,5.423,0,0,0,4.362.717,1.207,1.207,0,0,0,.658-.418.568.568,0,0,0-.354-.893A17.8,17.8,0,0,1,4.307,7.63,5.058,5.058,0,0,1,.883,5.177,3.452,3.452,0,0,1,.942,2.13C1.671.727,3.78.217,4.679.086A8.338,8.338,0,0,1,11.584,2.13L9.609,3.624a5.122,5.122,0,0,0-4.453-.641c-.284.134-.477.265-.477.565" transform="translate(183.229 161.887)" fill="#fffffe"></path>
  <path id="Fill_14" data-name="Fill 14" d="M10.613,2.626H3.963v2.26H8.269V7.414H3.963v4.574H0V0H10.613V2.626" transform="translate(200.476 162.045)" fill="#fffffe"></path>
  <path id="Fill_15" data-name="Fill 15" d="M6.244,9.254c1.556,0,2.305-.582,2.305-1.589V0h3.077V8.149c0,2.59-1.4,4-5.431,4H5.427C1.4,12.151,0,10.719,0,8.149V0H3.992V7.7c0,.926.686,1.557,2.253,1.557" transform="translate(216.429 162.043)" fill="#fffffe"></path>
  <path id="Fill_16" data-name="Fill 16" d="M3.992,0V9.359H9.746v2.629H0V0H3.992" transform="translate(233.392 162.044)" fill="#fffffe"></path>
  <path id="Fill_17" data-name="Fill 17" d="M3.993,0V9.359H9.747v2.629H0V0H3.993" transform="translate(254.747 162.044)" fill="#fffffe"></path>
  <path id="Fill_18" data-name="Fill 18" d="M0,11.988H3.979V0H0Z" transform="translate(269.627 162.044)" fill="#fffffe"></path>
  <path id="Fill_19" data-name="Fill 19" d="M4.022.014,7.01,7.724,10.045.014h3.472L8.769,12H4.663L0,0,4.022.014" transform="translate(278.263 162.03)" fill="#fffffe"></path>
  <path id="Fill_20" data-name="Fill 20" d="M0,11.988H3.979V0H0Z" transform="translate(296.682 162.044)" fill="#fffffe"></path>
  <path id="Fill_21" data-name="Fill 21" d="M9.014,6.488V0H12.1V11.991H8.8L3.064,5.111v6.88H0V0H3.6L9.014,6.488" transform="translate(305.965 162.043)" fill="#fffffe"></path>
  <path id="Fill_22" data-name="Fill 22" d="M6.722,8.178V5.872h6.2V12.18H11.506L10.515,10.9A7.2,7.2,0,0,1,5.9,12.317,6.163,6.163,0,0,1,6.389,0a13.679,13.679,0,0,1,2.53.235A4.873,4.873,0,0,1,12.66,3.992l-3.385.36a2.349,2.349,0,0,0-2.5-2.008,2.283,2.283,0,0,0-2.439,2.59v2.6A2.3,2.3,0,0,0,6.915,9.894c1.063,0,2.2-.87,2.2-1.612,0-.079-.027-.1-.118-.1H6.722" transform="translate(323.074 161.88)" fill="#fffffe"></path>
  <path id="Fill_23" data-name="Fill 23" d="M6.013,12a6,6,0,1,1,5.976-6.037A6.032,6.032,0,0,1,6.013,12Zm0-10.833a4.837,4.837,0,1,0,4.839,4.8A4.843,4.843,0,0,0,6.013,1.171ZM4.775,9.351h0l-.99,0V2.635H6.7a3.24,3.24,0,0,1,1.635.324A1.658,1.658,0,0,1,9.076,4.4c0,1.485-1.147,1.826-2.109,1.851L9,9.346l-1.14,0L5.941,6.256H4.775V9.351Zm0-5.95V5.424H5.86c.1,0,.207,0,.314,0s.228,0,.341,0A2.6,2.6,0,0,0,7.6,5.262a.881.881,0,0,0,.492-.878c0-.908-.82-.984-1.589-.984Z" transform="translate(324.003 30.011)" fill="#fffffe"></path>
  <path id="Fill_24" data-name="Fill 24" d="M21.452,113.991H0V0H18.09C34.517,0,44.756,4.935,50.312,15.531c2.424,4.624,4.052,10.5,4.976,17.972A191.163,191.163,0,0,1,56.36,57a216.1,216.1,0,0,1-.929,22.821c-.821,7.454-2.279,13.356-4.458,18.046a25.544,25.544,0,0,1-10.491,11.861C35.519,112.595,29.294,113.991,21.452,113.991Zm-.638-96.38V96.386c3.647-.044,5.948-.457,7.689-1.383,1.927-1.024,3.236-2.766,4.118-5.481,1.83-5.632,1.963-16.1,1.963-32.682,0-16.481-.132-26.89-1.963-32.463-.882-2.683-2.19-4.4-4.118-5.41C26.769,18.061,24.469,17.656,20.814,17.611Z" transform="translate(23.991 30.002)" fill="#fffffe"></path>
  <path id="Fill_25" data-name="Fill 25" d="M0,113.994H20.814V0H0Z" transform="translate(90.014 30.004)" fill="#fffffe"></path>
  <path id="Fill_26" data-name="Fill 26" d="M0,0H47.064V17.609H20.811v29.14H40.182V65.322H20.811V96.386H48.183v17.608H0V0" transform="translate(121.986 30.003)" fill="#fffffe"></path>
  <path id="Fill_27" data-name="Fill 27" d="M19.536,83.251c0,6.409,0,17.608,8.968,17.608,6.88,0,9.282-6.4,9.282-11.039C37.785,69.48,0,64.838,0,31.056,0,13.923,9.29,0,26.9,0,45.626,0,52.832,14.246,53.313,34.735H34.742c0-6.4,0-17.128-8.324-17.128-4.964,0-7.843,4.163-7.843,10.408C18.575,47.39,56.35,53.952,56.35,87.1c0,17.445-9.919,31.378-28.653,31.378C5.447,118.477.965,98.942.965,83.251H19.536" transform="translate(172.868 27.766)" fill="#fffffe"></path>
  <path id="Fill_28" data-name="Fill 28" d="M0,0H47.068V17.609H20.813v29.14H40.184V65.322H20.813V96.386H48.186v17.608H0V0" transform="translate(236.288 30.003)" fill="#fffffe"></path>
  <path id="Fill_29" data-name="Fill 29" d="M0,0H20.817V96.386H42.246v17.608H0V0" transform="translate(293.756 30.003)" fill="#fffffe"></path>
</svg>
